<svg width="128" height="141" viewBox="0 0 128 141" fill="none" xmlns="http://www.w3.org/2000/svg">
<path fill-rule="evenodd" clip-rule="evenodd" d="M101.541 68.14C106.801 49.52 104.311 34.48 97.9709 23.14V23.07C111.166 31.5667 120.751 44.6449 124.881 59.7862C129.01 74.9275 127.391 91.0611 120.337 105.08C113.282 119.1 101.29 130.013 86.6696 135.719C72.0495 141.426 55.8349 141.521 41.1486 135.987C26.4623 130.453 14.3429 119.682 7.12371 105.747C-0.0955111 91.8112 -1.90381 75.6977 2.04705 60.5089C5.99792 45.3201 15.4287 32.13 28.5231 23.4786C41.6175 14.8273 57.4496 11.3263 72.9709 13.65C68.9409 9.86002 60.801 3.22 50.321 0C68.141 0 78.8007 7.56997 85.0407 16.72L85.2409 16.79C91.7909 27.07 95.6709 40.32 91.2409 53.86C90.6409 44.78 87.0607 39.65 87.0607 39.65C86.7007 48.48 81.4508 62.93 68.9108 70.93C68.9108 70.93 72.8509 63.89 72.9709 57.56C69.1509 61.62 61.2708 66.27 52.4108 67.51C40.0508 69.07 31.9207 75.98 28.8307 86.38C26.9009 92.9295 27.6482 99.977 30.9084 105.976C34.1686 111.975 39.6755 116.436 46.2209 118.38C61.8809 123.04 89.0509 112.48 103.221 90.38C98.2511 92.0854 93.0604 93.0621 87.8107 93.28C101.911 82.82 108.981 73.28 111.451 62.28C108.599 64.9126 105.222 66.91 101.541 68.14ZM58.1963 110.164C54.4884 111.134 50.563 110.84 47.0405 109.33C45.7234 108.758 44.4837 108.022 43.3506 107.14L48.3506 106.27L40.4805 103.63L47.9805 98.34L39.4106 98.0999L40.8408 91.1799L36.8408 96.39C36.195 92.6122 36.8264 88.7269 38.6352 85.348C40.4441 81.9692 43.3272 79.2895 46.8291 77.7322C50.331 76.1749 54.2521 75.829 57.9726 76.749C61.6932 77.669 65.001 79.8025 67.3735 82.8124C69.7461 85.8223 71.0481 89.537 71.0737 93.3695C71.0994 97.2019 69.8472 100.934 67.5151 103.975C65.1831 107.017 61.9041 109.194 58.1963 110.164Z" fill="#FD9037"/>
</svg>
