<svg width="81" height="91" viewBox="0 0 81 91" fill="none" xmlns="http://www.w3.org/2000/svg">
<path d="M76.3848 19.1401L68.5855 14.6372L61.2347 10.3933C58.6964 8.92781 54.5426 8.92781 52.0043 10.3933L20.7568 28.434C18.2185 29.8996 16.1416 33.4968 16.1416 36.4278V54.4686C16.1416 57.0987 18.0052 60.3265 20.2829 61.6416C22.5606 62.9566 26.2878 62.9566 28.5655 61.6415L32.2393 59.5204V45.7219C32.2393 42.7908 34.3162 39.1936 36.8546 37.7281L52.5214 28.6828C54.7755 27.3815 58.4639 27.3815 60.7179 28.6829L69.7296 25.7395L76.3848 19.1401Z" fill="url(#paint0_linear_112_119)"/>
<path d="M60.717 28.7077C58.4393 27.3927 54.7121 27.3927 52.4344 28.7078L48.7606 30.8289V44.6274C48.7606 47.5585 46.6838 51.1557 44.1454 52.6212L28.4786 61.6665C26.2245 62.9678 22.5361 62.9678 20.282 61.6665L11.6001 64.4858L4.61523 71.2092L19.7652 79.956C22.3036 81.4215 26.4573 81.4215 28.9957 79.9559L60.2431 61.9153C62.7814 60.4497 64.8583 56.8525 64.8583 53.9215V35.8807C64.8583 33.2506 62.9948 30.0227 60.717 28.7077Z" fill="url(#paint1_linear_112_119)"/>
<path d="M20.282 61.6663C18.028 60.3649 16.1496 57.1707 16.1417 54.5679V36.4277C16.137 34.8932 16.6978 33.1784 17.5943 31.6802L11.7796 25.0012L1.77645 21.9197C0.69822 23.52 0 25.4373 0 27.1337V63.2153C0 66.1463 2.07687 69.7435 4.61525 71.2091L20.282 61.6663Z" fill="url(#paint2_linear_112_119)"/>
<path d="M20.7129 28.434L51.9603 10.3933C54.4987 8.92775 58.6523 8.92775 61.1907 10.3933L45.0932 1.09917C42.5548 -0.366383 38.4011 -0.366383 35.8628 1.09913L4.61517 19.1399C3.5459 19.7572 2.56109 20.755 1.77637 21.9197L17.5942 31.6802C18.4101 30.3167 19.5034 29.1322 20.7129 28.434Z" fill="url(#paint3_linear_112_119)"/>
<path d="M60.7168 28.7075L76.3846 19.1399C78.9229 20.6054 80.9998 24.2026 80.9998 27.1337V63.2153C80.9998 64.9476 80.2743 66.9127 79.1568 68.5328L70.0189 65.024L63.4175 58.6566C64.309 57.1618 64.8628 55.4508 64.8581 53.9213V35.781C64.8502 33.1783 62.9718 29.984 60.7177 28.6826" fill="url(#paint4_linear_112_119)"/>
<path d="M63.4176 58.6567C62.6009 60.0263 61.5007 61.2144 60.287 61.9152L29.0395 79.9558C26.5011 81.4214 22.3475 81.4214 19.8091 79.9559L35.9067 89.25C38.445 90.7155 42.5987 90.7155 45.137 89.25L76.3847 71.2092C77.4227 70.6099 78.3837 69.654 79.1569 68.533L63.4176 58.6567Z" fill="url(#paint5_linear_112_119)"/>
<defs>
<linearGradient id="paint0_linear_112_119" x1="16.0928" y1="52.1031" x2="54.5003" y2="21.9514" gradientUnits="userSpaceOnUse">
<stop stop-color="#251E82"/>
<stop offset="1" stop-color="#7D51CB"/>
</linearGradient>
<linearGradient id="paint1_linear_112_119" x1="62.8589" y1="33.7697" x2="31.4508" y2="67.8699" gradientUnits="userSpaceOnUse">
<stop stop-color="#251E82"/>
<stop offset="1" stop-color="#7D51CB"/>
</linearGradient>
<linearGradient id="paint2_linear_112_119" x1="10.1411" y1="62.6926" x2="10.1411" y2="32.0003" gradientUnits="userSpaceOnUse">
<stop stop-color="#7D51CB"/>
<stop offset="1" stop-color="#C372EF"/>
</linearGradient>
<linearGradient id="paint3_linear_112_119" x1="12.3268" y1="26.5612" x2="48.2217" y2="5.92157" gradientUnits="userSpaceOnUse">
<stop stop-color="#C372EF"/>
<stop offset="1" stop-color="#F187FF"/>
</linearGradient>
<linearGradient id="paint4_linear_112_119" x1="70.8582" y1="27.8726" x2="70.8582" y2="56.7681" gradientUnits="userSpaceOnUse">
<stop stop-color="#7D51CB"/>
<stop offset="1" stop-color="#C372EF"/>
</linearGradient>
<linearGradient id="paint5_linear_112_119" x1="64.5094" y1="59.2358" x2="38.6864" y2="85.2346" gradientUnits="userSpaceOnUse">
<stop stop-color="#C372EF"/>
<stop offset="1" stop-color="#F187FF"/>
</linearGradient>
</defs>
</svg>
