<svg width="140" height="140" viewBox="0 0 140 140" fill="none" xmlns="http://www.w3.org/2000/svg">
<path d="M109.19 127.81C99.0908 134.663 87.3635 138.733 75.19 139.61C73.46 139.75 71.71 139.81 69.96 139.81C68.21 139.81 66.4899 139.75 64.7799 139.62C52.6067 138.734 40.8808 134.661 30.7799 127.81H109.19ZM20.19 20.6699L50.5099 46.39C54.6231 42.9504 59.5747 40.6627 64.8599 39.76V0C47.9374 1.21787 32.0404 8.56721 20.15 20.6699H20.19ZM43.7701 54.3199L13.4 28.58C4.67001 40.5449 -0.0232684 54.9787 8.67452e-05 69.7899C8.67452e-05 71.7899 0.0834201 73.7899 0.250087 75.7899H40.0499C38.5809 68.4291 39.877 60.7852 43.69 54.3199H43.7701ZM75.2701 0.0100098V39.7699C80.5128 40.6729 85.4244 42.9426 89.5098 46.35L119.84 20.62C107.964 8.56358 92.1086 1.23823 75.2301 0.0100098H75.2701ZM126.55 28.58L96.2301 54.2899C100.066 60.7685 101.373 68.4363 99.9 75.8199H139.74C139.913 73.8199 140 71.8199 140 69.8199C140.016 54.9928 135.304 40.5467 126.55 28.58ZM1.92977 86.22C2.78119 89.7734 3.91124 93.2542 5.30966 96.63H134.69C136.088 93.2542 137.218 89.7734 138.07 86.22H1.92977ZM10.6798 107.03C11.5198 108.37 12.4099 109.67 13.3399 110.95C14.9834 113.219 16.7634 115.387 18.67 117.44H121.32C123.214 115.401 124.984 113.251 126.62 111C127.56 109.707 128.456 108.373 129.31 107L10.6798 107.03Z" fill="url(#paint0_linear_8_748)"/>
<defs>
<linearGradient id="paint0_linear_8_748" x1="0" y1="69.905" x2="140" y2="69.905" gradientUnits="userSpaceOnUse">
<stop stop-color="#FC7421"/>
<stop offset="1" stop-color="#FEBC5A"/>
</linearGradient>
</defs>
</svg>
