<svg width="136" height="141" viewBox="0 0 136 141" fill="none" xmlns="http://www.w3.org/2000/svg">
<path d="M128.466 100.31C131.382 91.6799 132.412 82.5242 131.486 73.4619C130.559 64.3996 127.698 55.6417 123.096 47.78C120.919 44.0828 118.369 40.618 115.486 37.4399C107.246 28.3499 93.266 20.5799 91.946 22.8599C90.626 25.1399 101.006 26.8 111.946 40.49C116.874 46.6382 120.468 53.7458 122.496 61.3599C124.518 68.8529 124.98 76.6809 123.856 84.3599C123.422 87.2757 122.753 90.1518 121.856 92.96C118.317 89.3977 114.584 86.0326 110.676 82.8799C110.905 78.4265 110.429 73.9649 109.266 69.6599C106.006 57.6599 96.6261 47.6599 94.8561 49.3899C93.0861 51.1199 101.356 55.9699 103.136 70.8999C103.387 73.017 103.444 75.1526 103.306 77.28C99.8665 74.8217 96.2982 72.5485 92.6164 70.47C88.8064 68.32 89.186 74.2599 85.236 80.8799C85.056 81.1899 84.3563 82.34 84.0363 82.2C83.9545 82.1427 83.8878 82.0662 83.8425 81.9773C83.7971 81.8884 83.7744 81.7897 83.776 81.6899C92.976 55.7399 79.4863 0.81007 67.9963 0.82007C64.4063 0.82007 60.6164 6.19988 57.3864 14.3799C43.5908 17.0745 31.0756 24.2622 21.7961 34.8201C16.0747 41.2832 11.7633 48.8678 9.1364 57.0901C5.3764 68.7701 5.62603 84.76 8.25603 84.76C10.886 84.76 7.14632 74.9499 13.5563 58.6599C14.993 54.9892 16.8057 51.4771 18.966 48.1799C21.1186 44.9073 23.5984 41.8618 26.3664 39.0901C31.8749 33.6176 38.442 29.3266 45.6662 26.48C48.4646 25.3795 51.3474 24.5066 54.2863 23.8699C52.9454 28.7081 51.8672 33.6154 51.0563 38.5701C47.0498 40.6082 43.3908 43.2677 40.216 46.45C31.426 55.28 27.4964 68.36 29.8464 69.05C32.3764 69.8 32.3064 60.1399 44.3464 51.1499C46.0689 49.8602 47.9064 48.7322 49.8361 47.78C49.1462 54.2971 49.0259 60.8619 49.4762 67.3999C24.1862 79.2499 -4.31393 108.59 0.546068 117.01C2.40607 120.22 9.34624 120.75 18.4762 119.28C24.4982 126.108 31.911 131.569 40.2175 135.297C48.5239 139.024 57.5321 140.931 66.6364 140.89C70.9242 140.851 75.1966 140.372 79.3864 139.46C91.3864 136.88 105.106 128.66 103.786 126.38C102.466 124.1 95.8463 132.26 78.5363 134.85C70.796 136.027 62.8966 135.6 55.3278 133.598C47.759 131.596 40.6822 128.06 34.5363 123.21C32.2341 121.384 30.0807 119.377 28.0964 117.21C32.9518 115.914 37.7347 114.362 42.426 112.56C46.163 114.977 50.2565 116.792 54.5563 117.94C66.5563 121.13 79.8861 117.94 79.3161 115.61C78.6961 113.05 70.3163 117.94 56.5563 112.01C54.6027 111.181 52.7283 110.177 50.9562 109.01C56.8929 106.321 62.5815 103.116 67.9562 99.4299C90.8562 115.43 130.576 125.43 135.436 117.04C137.326 113.75 134.306 107.48 128.466 100.31ZM67.986 85.72C66.4611 85.72 64.9707 85.2678 63.7028 84.4207C62.4349 83.5735 61.4465 82.3693 60.863 80.9604C60.2794 79.5516 60.127 78.0015 60.4245 76.5059C60.722 75.0103 61.4561 73.6364 62.5344 72.5581C63.6126 71.4798 64.9865 70.7457 66.4821 70.4482C67.9777 70.1508 69.5279 70.3034 70.9367 70.887C72.3455 71.4705 73.5495 72.4587 74.3967 73.7266C75.2438 74.9945 75.696 76.4851 75.696 78.01C75.6933 80.054 74.8806 82.0134 73.4352 83.4587C71.9899 84.9041 70.03 85.7173 67.986 85.72V85.72Z" fill="url(#paint0_linear_8_744)"/>
<defs>
<linearGradient id="paint0_linear_8_744" x1="33.6961" y1="129.42" x2="112.676" y2="35.4099" gradientUnits="userSpaceOnUse">
<stop stop-color="#009BE8"/>
<stop offset="1" stop-color="#00D8FC"/>
</linearGradient>
</defs>
</svg>
