<svg width="140" height="86" viewBox="0 0 140 86" fill="none" xmlns="http://www.w3.org/2000/svg">
<path d="M140 53.2262C140.001 57.4614 139.167 61.6554 137.546 65.5682C135.925 69.481 133.549 73.0357 130.553 76.0292C127.557 79.0227 124 81.3962 120.086 83.0139C116.171 84.6315 111.977 85.4616 107.741 85.4567H99.1932L97.77 66.2579C97.5138 58.9049 95.6937 51.6909 92.4308 45.0964C90.4659 41.1274 87.4395 37.7806 83.6875 35.4276C79.9355 33.0747 75.6048 31.8076 71.1763 31.767C67.8901 31.7582 64.6723 32.706 61.9156 34.4948C59.1589 36.2836 56.9824 38.8361 55.6516 41.8408C52.627 42.6425 49.8758 44.2478 47.6895 46.4864C45.5033 48.725 43.9637 51.5136 43.2338 54.5563C43.2152 54.6417 43.221 54.7307 43.2506 54.8129C43.2802 54.8952 43.3324 54.9674 43.4012 55.0214C43.4702 55.0758 43.5534 55.1092 43.6409 55.1175C43.7283 55.1257 43.8163 55.1085 43.8942 55.0679C48.9544 52.4169 55.7354 52.4262 59.5398 54.24C62.4047 55.6167 63.9023 59.3746 63.493 62.7047L61.335 85.4195H24.5931C21.3864 85.4825 18.1994 84.9053 15.2185 83.7217C12.2376 82.5381 9.52275 80.7719 7.2327 78.5264C4.94266 76.2809 3.12347 73.6012 1.88157 70.6441C0.639668 67.6871 0 64.512 0 61.3047C0 58.0975 0.639668 54.9224 1.88157 51.9653C3.12347 49.0083 4.94266 46.3286 7.2327 44.0831C9.52275 41.8376 12.2376 40.0714 15.2185 38.8878C18.1994 37.7042 21.3864 37.127 24.5931 37.1899H26.9557C28.0909 28.3802 31.9491 20.145 37.9914 13.6342C44.0337 7.12342 51.9585 2.66215 60.6591 0.873474C69.3597 -0.915204 78.4017 0.0579985 86.5224 3.65713C94.6431 7.25626 101.437 13.3016 105.956 20.9491H107.816C112.049 20.9539 116.239 21.7928 120.148 23.4178C124.057 25.0427 127.607 27.4219 130.595 30.4193C133.584 33.4168 135.953 36.9737 137.567 40.887C139.181 44.8003 140.007 48.9932 140 53.2262V53.2262ZM70.6833 39.9154C70.0619 39.9172 69.4549 40.1031 68.9391 40.4497C68.4233 40.7963 68.0218 41.288 67.7853 41.8626C67.5487 42.4373 67.4878 43.0691 67.6101 43.6784C67.7325 44.2877 68.0327 44.847 68.4727 45.2857C68.9128 45.7245 69.473 46.023 70.0826 46.1436C70.6923 46.2641 71.3239 46.2013 71.8979 45.9631C72.4718 45.7249 72.9623 45.3219 73.3074 44.8051C73.6524 44.2883 73.8366 43.6808 73.8366 43.0594C73.8366 42.6457 73.7549 42.2361 73.5964 41.8541C73.4378 41.472 73.2054 41.125 72.9124 40.8329C72.6195 40.5409 72.2718 40.3094 71.8893 40.152C71.5068 39.9945 71.0969 39.9141 70.6833 39.9154V39.9154Z" fill="#30C699"/>
</svg>
