<svg width="141" height="122" viewBox="0 0 141 122" fill="none" xmlns="http://www.w3.org/2000/svg">
<path d="M132.502 86.8325C132.24 86.5689 131.928 86.3596 131.585 86.2168C131.242 86.074 130.874 86.0005 130.502 86.0005C130.13 86.0005 129.762 86.074 129.419 86.2168C129.076 86.3596 128.764 86.5689 128.502 86.8325L124.502 90.8325C124.238 91.0946 124.029 91.406 123.886 91.7493C123.743 92.0925 123.67 92.4608 123.67 92.8325C123.67 93.2043 123.743 93.5723 123.886 93.9155C124.029 94.2588 124.238 94.5704 124.502 94.8325L126.502 96.8325C127.752 98.369 128.388 100.315 128.286 102.293C128.184 104.271 127.352 106.141 125.951 107.541C124.55 108.941 122.679 109.771 120.701 109.871C118.722 109.971 116.778 109.334 115.242 108.083L90.2422 83.0825C100.622 72.0825 109.062 60.6125 114.242 50.3225C122.922 33.1625 119.922 24.7524 115.882 20.7024C103.152 7.972 85.8858 0.820068 67.8823 0.820068C49.8788 0.820069 32.6127 7.972 19.8823 20.7024C7.15193 33.4328 5.69094e-07 50.6989 0 68.7024C-5.69093e-07 86.7059 7.15193 103.972 19.8823 116.702V116.702C22.5623 119.392 26.1523 120.602 30.3623 120.602C44.1023 120.602 64.542 107.742 82.252 91.0425L107.252 116.042C110.852 119.644 115.736 121.668 120.829 121.669C125.921 121.67 130.806 119.648 134.407 116.047C138.009 112.447 140.033 107.563 140.034 102.471C140.035 97.3784 138.012 92.494 134.412 88.8923L132.502 86.8325ZM94.8423 18.8325C87.9423 21.1725 80.2419 25.4025 72.4419 30.8325C59.6919 23.2825 50.2419 20.7724 39.4419 19.7524C47.8126 14.8619 57.2987 12.2017 66.9917 12.0266C76.6847 11.8515 86.2604 14.1674 94.8022 18.7524L94.8423 18.8325ZM37.5522 63.4624C31.2722 51.6424 30.2221 43.1524 29.7021 30.4624C42.4221 30.9724 50.9221 32.0225 62.7021 38.3225C58.1921 42.0425 53.7522 46.0725 49.5122 50.3225C45.2722 54.5725 41.2222 58.9824 37.5522 63.4224V63.4624ZM19.062 40.2124C20.062 50.9624 22.5921 60.4123 30.1221 73.1423C26.9563 77.578 24.1156 82.237 21.6221 87.0825C20.2334 89.7883 19.0371 92.5885 18.042 95.4624C13.4732 86.9353 11.1662 77.3794 11.3413 67.707C11.5164 58.0346 14.1676 48.5686 19.042 40.2124H19.062ZM27.9321 108.742C26.7321 107.542 26.6823 101.982 31.6523 92.1523C36.9723 81.6323 46.152 69.5824 57.502 58.2424C79.882 35.8624 98.3421 27.9324 105.372 27.9324C106.313 27.8331 107.256 28.0939 108.012 28.6624C109.212 29.8624 109.262 35.4325 104.292 45.2625C99.592 54.5425 91.8921 65.0123 82.3521 75.1323L70.7622 63.5425C70.5001 63.2788 70.1885 63.0695 69.8452 62.9268C69.502 62.784 69.134 62.7104 68.7622 62.7104C68.3905 62.7104 68.0224 62.784 67.6792 62.9268C67.336 63.0695 67.0243 63.2788 66.7622 63.5425L62.7622 67.5425C62.4986 67.8046 62.2893 68.116 62.1465 68.4592C62.0037 68.8025 61.9302 69.1707 61.9302 69.5425C61.9302 69.9142 62.0037 70.2823 62.1465 70.6255C62.2893 70.9687 62.4986 71.2804 62.7622 71.5425L74.3521 83.1323C49.9121 106.162 30.9021 111.722 27.9321 108.722V108.742Z" fill="url(#paint0_linear_8_756)"/>
<defs>
<linearGradient id="paint0_linear_8_756" x1="28.8822" y1="119.072" x2="115.392" y2="28.2825" gradientUnits="userSpaceOnUse">
<stop stop-color="#372584"/>
<stop offset="1" stop-color="#613CEF"/>
</linearGradient>
</defs>
</svg>
