<svg width="112" height="141" viewBox="0 0 112 141" fill="none" xmlns="http://www.w3.org/2000/svg">
<path d="M63.6694 41.8778C73.0794 35.8078 90.2195 48.7678 85.7295 64.7478C83.4033 61.9977 80.0884 60.2736 76.5012 59.948C72.914 59.6224 69.3426 60.7215 66.5593 63.0078C48.2493 78.6178 83.2993 115.148 103.849 82.1378C119.639 56.7978 110.389 23.2678 84.6494 8.13785C46.8194 -14.1022 8.64939 12.1379 1.15939 51.8379C-6.50061 92.6179 24.9794 134.458 60.6994 139.978C61.2205 140.055 61.7525 139.957 62.2119 139.699C62.6713 139.441 63.0319 139.038 63.2378 138.553C63.4436 138.069 63.483 137.529 63.3493 137.02C63.2157 136.51 62.9168 136.059 62.4995 135.738C33.8595 113.978 28.2694 82.9979 31.4494 60.4379C34.2694 40.4379 53.6594 30.1478 63.6694 41.8778" fill="url(#paint0_linear_8_732)"/>
<defs>
<linearGradient id="paint0_linear_8_732" x1="14.7794" y1="104.558" x2="74.5894" y2="43.5479" gradientUnits="userSpaceOnUse">
<stop stop-color="#0082D9"/>
<stop offset="1" stop-color="#00BDE3"/>
</linearGradient>
</defs>
</svg>
