<svg width="181" height="122" viewBox="0 0 181 122" fill="none" xmlns="http://www.w3.org/2000/svg">
<path fill-rule="evenodd" clip-rule="evenodd" d="M178.557 64.0582L180.428 67.6841L180.404 67.7325C180.772 68.4436 180.975 69.2288 180.998 70.0295C181.021 70.8302 180.863 71.6258 180.535 72.3568C180.208 73.0877 179.72 73.7352 179.108 74.2509C178.496 74.7665 177.776 75.137 177 75.3347L174.732 75.9148C174.081 76.0861 173.389 76.0092 172.791 75.6988C172.194 75.3884 171.733 74.8667 171.497 74.2349L169.084 67.817L144.791 64.4691C137.875 69.409 128.561 69.4814 118.717 69.5579C105.319 69.6621 90.9386 69.7739 80.288 82.1756C70.5009 93.573 58.1433 100.426 44.3979 101.937C43.9788 101.986 43.5773 102.134 43.2268 102.369C42.8763 102.605 42.5869 102.921 42.3826 103.29L36.5176 113.975C36.3723 114.24 36.2843 114.534 36.2594 114.836C36.2344 115.137 36.273 115.441 36.3727 115.727L37.4709 118.845C37.5853 119.203 37.6151 119.582 37.558 119.952C37.5008 120.323 37.3583 120.676 37.1417 120.982C36.9251 121.288 36.6404 121.539 36.31 121.716C35.9797 121.892 35.6128 121.99 35.2384 122H32.4869C31.7184 122.003 30.9747 121.728 30.3919 121.226C29.8091 120.725 29.4261 120.03 29.313 119.269L28.6493 114.942C28.5152 114.113 28.6595 113.262 29.0596 112.524L39.6069 92.9688C39.7645 92.6738 40.0087 92.4343 40.3066 92.283C40.6045 92.1317 40.9416 92.0756 41.2723 92.1226C42.7222 92.4309 44.2318 92.2815 45.5934 91.6949C46.9549 91.1083 48.1015 90.1134 48.8751 88.8473L63.0791 64.3361C45.6725 67.8568 27.6728 66.2794 11.2126 59.8694C8.76425 61.8576 1.97345 61.3768 0 54.2319C5.58758 50.7085 10.4419 53.684 11.7625 56.5815C27.4459 61.731 44.2607 62.5789 60.4434 58.9815C78.5432 54.958 95.0106 45.5607 107.694 32.0173C108.684 30.9537 110.494 26.6268 103.084 28.1134C103.007 28.1276 102.927 28.1191 102.854 28.0891C102.782 28.0591 102.719 28.0088 102.674 27.9442C102.633 27.8789 102.612 27.8035 102.612 27.7266C102.612 27.6497 102.633 27.5744 102.674 27.5091C106.475 21.5022 115.297 16.0513 121.44 14.0812C119.289 12.6176 116.792 11.7464 114.199 11.5551C114.121 11.5414 114.049 11.5056 113.992 11.452C113.934 11.3984 113.893 11.3293 113.873 11.253C113.856 11.1766 113.862 11.0969 113.89 11.0238C113.918 10.9508 113.966 10.8875 114.03 10.842C116.906 8.7372 120.191 7.26024 123.673 6.50659C127.155 5.75294 130.756 5.73938 134.244 6.46676C132.635 4.21119 130.582 2.3106 128.21 0.882876C128.136 0.840466 128.078 0.774851 128.045 0.696166C128.013 0.617481 128.007 0.530152 128.029 0.447785C128.047 0.366364 128.091 0.292955 128.154 0.238502C128.217 0.18405 128.296 0.151471 128.379 0.145627C139.916 -0.845453 154.18 3.05842 158.826 16.8973L163.364 20.1244C163.991 20.5544 164.425 21.2142 164.57 21.9614L165.029 24.4633C165.104 24.897 165.315 25.2953 165.632 25.5995L172.777 32.4887C172.981 32.7005 173.101 32.9799 173.115 33.2743C173.113 33.5688 172.996 33.851 172.789 34.06L169.723 37.1298C168.803 38.0626 168.152 39.2281 167.841 40.5019L167.648 41.3479C167.54 41.7961 167.329 42.213 167.033 42.5657C166.736 42.9183 166.362 43.1971 165.939 43.38C165.517 43.5628 165.058 43.6448 164.598 43.6194C164.139 43.594 163.691 43.4618 163.291 43.2334L156.05 39.0878C155.665 43.8428 154.663 48.5274 153.07 53.0233L173.73 59.8885C175.821 60.5937 177.554 62.0902 178.557 64.0582Z" fill="#F1B128"/>
</svg>
