<svg width="140" height="123" viewBox="0 0 140 123" fill="none" xmlns="http://www.w3.org/2000/svg">
<path d="M107.154 34.6418V34.5979C107.154 25.422 103.509 16.6219 97.0202 10.1335C90.5319 3.64511 81.7319 0 72.556 0C63.38 0 54.5797 3.64511 48.0913 10.1335C41.6029 16.6219 37.9578 25.422 37.9578 34.5979C37.9578 34.6594 37.9578 34.7121 37.9578 34.7649C36.8508 34.6594 35.7261 34.5979 34.5928 34.5979C25.8278 34.5992 17.39 37.9271 10.9839 43.9094C4.5779 49.8917 0.681389 58.0825 0.0812471 66.8269C-0.518894 75.5714 2.22242 84.2177 7.7511 91.0191C13.2798 97.8205 21.1836 102.27 29.8662 103.469V103.794H39.5304V118.615C39.5319 119.443 39.7674 120.253 40.2091 120.952C40.6508 121.652 41.2808 122.213 42.0271 122.57C42.7735 122.927 43.6058 123.066 44.4277 122.971C45.2497 122.876 46.0278 122.551 46.6731 122.033L69.3227 103.794H105.388C114.414 103.797 123.084 100.274 129.549 93.974C136.013 87.6745 139.76 79.098 139.989 70.0747C140.218 61.0514 136.912 52.2957 130.776 45.676C124.64 39.0562 116.159 35.0965 107.145 34.6418H107.154ZM99.027 46.6606C100.393 46.6606 101.728 47.0656 102.863 47.8244C103.999 48.5832 104.884 49.6617 105.407 50.9235C105.93 52.1853 106.066 53.5738 105.8 54.9133C105.533 56.2529 104.876 57.4834 103.91 58.4491C102.944 59.4149 101.714 60.0725 100.374 60.339C99.0345 60.6054 97.6463 60.4687 96.3845 59.946C95.1227 59.4234 94.0438 58.5383 93.285 57.4027C92.5263 56.267 92.1212 54.932 92.1212 53.5662C92.1212 51.7347 92.8488 49.9783 94.1439 48.6832C95.4389 47.3882 97.1956 46.6606 99.027 46.6606V46.6606ZM69.2172 37.629C71.1894 37.629 73.1173 38.2138 74.7571 39.3095C76.3969 40.4052 77.6754 41.9626 78.4301 43.7847C79.1848 45.6068 79.382 47.6117 78.9972 49.5461C78.6125 51.4804 77.663 53.2572 76.2684 54.6518C74.8739 56.0463 73.0969 56.9961 71.1626 57.3808C69.2283 57.7656 67.2234 57.5681 65.4013 56.8134C63.5792 56.0586 62.0219 54.7805 60.9261 53.1407C59.8304 51.5009 59.2454 49.5729 59.2454 47.6007C59.2454 46.2912 59.5036 44.9945 60.0047 43.7847C60.5058 42.5749 61.2404 41.4756 62.1663 40.5496C63.0923 39.6237 64.1915 38.8892 65.4013 38.388C66.6112 37.8869 67.9077 37.629 69.2172 37.629ZM39.4163 46.6606C40.7825 46.6589 42.1186 47.0624 43.2553 47.8202C44.3921 48.5779 45.2786 49.6558 45.8026 50.9174C46.3267 52.1791 46.4645 53.5678 46.199 54.908C45.9336 56.2481 45.2765 57.4793 44.3111 58.446C43.3457 59.4126 42.1151 60.0712 40.7754 60.3383C39.4356 60.6055 38.0468 60.4693 36.7845 59.9469C35.5222 59.4245 34.443 58.5394 33.6838 57.4036C32.9246 56.2678 32.5195 54.9323 32.5195 53.5662C32.5184 52.6597 32.6959 51.762 33.042 50.9242C33.3881 50.0864 33.8961 49.3251 34.5366 48.6838C35.1771 48.0424 35.9377 47.5336 36.7751 47.1865C37.6124 46.8393 38.5099 46.6606 39.4163 46.6606ZM45.0742 80.4679H28.6891C28.2674 80.4675 27.8506 80.3774 27.4665 80.2035C27.0823 80.0296 26.7398 79.7758 26.4614 79.4591C26.1829 79.1425 25.9751 78.7701 25.8518 78.3669C25.7284 77.9637 25.6922 77.5388 25.7458 77.1205C27.3097 64.7152 37.5977 64.1704 39.4163 64.1704C41.3027 64.1769 43.1681 64.5656 44.9001 65.313C46.632 66.0605 48.1949 67.1512 49.4937 68.5194C47.1161 72.1067 45.6031 76.1968 45.0742 80.4679V80.4679ZM87.948 85.0364C87.5456 85.493 87.051 85.859 86.4968 86.1104C85.9425 86.3618 85.3414 86.4928 84.7328 86.4948H53.6754C53.066 86.4935 52.4638 86.3625 51.9088 86.1107C51.3539 85.8588 50.8589 85.4918 50.4567 85.0339C50.0546 84.5761 49.7547 84.0379 49.5764 83.4551C49.3982 82.8724 49.346 82.2584 49.4233 81.6539C51.69 63.7224 66.5551 62.9317 69.182 62.9317C71.8089 62.9317 86.683 63.7224 88.9497 81.6539C89.0322 82.2572 88.985 82.8711 88.8107 83.4545C88.6365 84.0379 88.3393 84.5772 87.9394 85.0364H87.948ZM111.977 79.4575C111.7 79.7747 111.358 80.029 110.975 80.2032C110.591 80.3775 110.175 80.4677 109.754 80.4679H93.3601C92.8474 76.197 91.3431 72.1052 88.9673 68.5194C90.268 67.1514 91.8322 66.0609 93.5656 65.3134C95.299 64.566 97.1656 64.1772 99.0532 64.1704C100.872 64.1704 111.16 64.7152 112.724 77.1205C112.774 77.5408 112.733 77.967 112.604 78.3703C112.476 78.7735 112.262 79.1443 111.977 79.4575V79.4575Z" fill="url(#paint0_linear_8_740)"/>
<defs>
<linearGradient id="paint0_linear_8_740" x1="119.542" y1="29.757" x2="16.8108" y2="104.18" gradientUnits="userSpaceOnUse">
<stop stop-color="#46B1E2"/>
<stop offset="1" stop-color="#5144E2"/>
</linearGradient>
</defs>
</svg>
