<svg width="141" height="139" viewBox="0 0 141 139" fill="none" xmlns="http://www.w3.org/2000/svg">
<path fill-rule="evenodd" clip-rule="evenodd" d="M64.1497 4.31007C64.1734 3.69765 64.0613 3.08762 63.8211 2.52376C63.5809 1.9599 63.2188 1.45623 62.7608 1.04894C62.3028 0.641644 61.7605 0.340838 61.1724 0.168137C60.5844 -0.00456387 59.9654 -0.0448773 59.3599 0.0500951C42.0671 2.75145 26.403 11.8046 15.4297 25.4401C15.0496 25.9179 14.7792 26.4733 14.6373 27.0671C14.4953 27.661 14.4854 28.2787 14.6085 28.8768C14.7315 29.4748 14.9843 30.0385 15.3492 30.5281C15.714 31.0177 16.1819 31.4212 16.7198 31.7101C30.9298 39.2601 44.1999 45.1901 53.1299 40.0401C62.0599 34.8901 63.5697 20.3201 64.1497 4.31007ZM124.718 30.532C124.351 31.0215 123.881 31.4237 123.34 31.71C109.18 39.22 95.84 45.2 86.9 40.04C77.96 34.88 76.47 20.4201 75.9 4.34005C75.8797 3.72896 75.9945 3.12088 76.236 2.55914C76.4774 1.99739 76.8396 1.49576 77.297 1.08996C77.7543 0.684164 78.2955 0.384189 78.882 0.211358C79.4684 0.0385275 80.0857 -0.00288329 80.6901 0.090051C97.9842 2.76857 113.655 11.8092 124.63 25.44C125.014 25.9165 125.287 26.4718 125.431 27.0664C125.575 27.6609 125.586 28.2799 125.463 28.879C125.339 29.4781 125.085 30.0426 124.718 30.532ZM129.2 96.6401C129.718 96.9646 130.301 97.1712 130.907 97.2449C131.514 97.3187 132.129 97.258 132.709 97.0671C133.29 96.8762 133.821 96.5597 134.265 96.1402C134.71 95.7208 135.056 95.2086 135.28 94.6401C141.6 78.3206 141.6 60.2296 135.28 43.9101C135.057 43.3419 134.712 42.8298 134.269 42.4104C133.825 41.9909 133.295 41.6744 132.715 41.4834C132.135 41.2924 131.521 41.2316 130.915 41.3054C130.309 41.3792 129.727 41.5856 129.21 41.9101C115.55 50.3901 103.77 58.9501 103.77 69.2301C103.77 79.5101 115.62 88.1301 129.2 96.6401ZM10.8199 41.9501C10.3022 41.6255 9.71942 41.419 9.11288 41.3452C8.50634 41.2714 7.8908 41.3322 7.31039 41.5231C6.72997 41.714 6.19876 42.0305 5.75448 42.4499C5.31019 42.8694 4.96378 43.3816 4.73983 43.9501C-1.57992 60.2696 -1.57992 78.3605 4.73983 94.6801C4.96378 95.2486 5.31019 95.7607 5.75448 96.1802C6.19876 96.5997 6.72997 96.9161 7.31039 97.107C7.8908 97.2979 8.50634 97.3587 9.11288 97.2849C9.71942 97.2111 10.3022 97.0046 10.8199 96.6801C24.4599 88.1601 36.2298 79.6301 36.2398 69.3201C36.2498 59.0101 24.4099 50.4201 10.8199 41.9501ZM16.6797 106.84C16.1391 107.126 15.6687 107.529 15.3017 108.018C14.9348 108.507 14.6806 109.072 14.5574 109.671C14.4341 110.27 14.4447 110.889 14.5886 111.484C14.7325 112.078 15.0063 112.634 15.3899 113.11C26.3794 126.755 42.0738 135.797 59.3899 138.46C59.9937 138.553 60.6107 138.512 61.1968 138.339C61.7828 138.166 62.3234 137.866 62.78 137.46C63.2366 137.054 63.5979 136.552 63.8381 135.99C64.0784 135.429 64.1915 134.821 64.1697 134.21C63.6097 118.13 62.1097 103.67 53.1697 98.5101C44.2297 93.3501 30.8397 99.3301 16.6797 106.84ZM76.2085 136.026C75.9682 135.463 75.8561 134.852 75.8802 134.24C76.4502 118.23 77.9502 103.66 86.8902 98.51C95.8302 93.36 109.1 99.29 123.3 106.84C123.839 107.128 124.308 107.531 124.674 108.02C125.04 108.51 125.294 109.074 125.417 109.672C125.54 110.271 125.53 110.889 125.387 111.483C125.244 112.078 124.972 112.633 124.59 113.11C113.623 126.748 97.9611 135.802 80.67 138.5C80.0646 138.59 79.4469 138.548 78.8597 138.375C78.2725 138.202 77.73 137.904 77.2701 137.5C76.8115 137.093 76.4489 136.59 76.2085 136.026ZM86.6698 69.2801C86.6698 78.4811 79.211 85.9401 70.0099 85.9401C60.8088 85.9401 53.3499 78.4811 53.3499 69.2801C53.3499 60.079 60.8088 52.6201 70.0099 52.6201C79.211 52.6201 86.6698 60.079 86.6698 69.2801Z" fill="#384391"/>
</svg>
