<svg width="134" height="140" viewBox="0 0 134 140" fill="none" xmlns="http://www.w3.org/2000/svg">
<path fill-rule="evenodd" clip-rule="evenodd" d="M76.1902 0L65.3 18.88L43.5 18.87L54.4001 0H76.1902ZM65.3 24.22L76.1902 43.1H26.4202L15.53 24.22H65.3ZM80.8301 2.67004L69.9302 21.55L94.8101 64.65L105.71 45.77L80.8301 2.67004ZM10.9001 26.9L21.79 45.77L10.9001 64.65L0 45.77L10.9001 26.9ZM23.3401 91.55L48.22 48.45H26.4302L1.54004 91.55H23.3401ZM23.3401 96.9L34.24 115.77L12.4402 115.78L1.54004 96.9H23.3401ZM79.28 140L90.1802 121.12H68.3801L57.49 140H79.28ZM107.26 96.9L118.15 115.77L68.3801 115.78L57.49 96.9H107.26ZM133.68 94.22L122.78 75.35L111.89 94.22L122.78 113.1L133.68 94.22ZM132.14 48.45L107.26 91.55H85.46L110.34 48.45H132.14ZM132.14 43.1L121.24 24.22H99.4402L110.34 43.1H132.14ZM38.8701 75.35L63.75 118.45L52.8501 137.32L27.97 94.22L38.8701 75.35Z" fill="#FF954F"/>
</svg>
