<svg width="113" height="141" viewBox="0 0 113 141" fill="none" xmlns="http://www.w3.org/2000/svg">
<path d="M56.1498 51.1819C57.6299 53.8463 58.4733 56.8172 58.6138 59.8619C58.7544 62.9066 58.1883 65.9425 56.9599 68.7319C56.796 69.1103 56.7576 69.5311 56.8503 69.9329C56.943 70.3346 57.1618 70.6962 57.4748 70.9645C57.7878 71.2328 58.1786 71.3938 58.5898 71.424C59.001 71.4541 59.4111 71.3517 59.76 71.1319C63.83 68.5219 68.3699 66.1319 69.5799 53.9319C82.9899 55.7119 92.5799 73.8019 97.9099 86.2219C98.1373 86.9614 98.5983 87.6073 99.2236 88.0629C99.8489 88.5185 100.605 88.7593 101.379 88.7492C102.152 88.739 102.902 88.4786 103.515 88.0067C104.128 87.5349 104.572 86.8771 104.78 86.1319C105.85 81.9519 106.89 76.5919 105.17 72.3719C110.73 67.7819 113.25 57.5419 112.05 51.4419C106.32 22.3319 77.2899 14.3619 54.3399 16.8519C48.0699 4.63194 32.46 -2.14811 17.76 0.611892C17.4027 0.677225 17.0712 0.842567 16.8041 1.0887C16.5371 1.33483 16.3453 1.6517 16.251 2.00246C16.1568 2.35322 16.164 2.72349 16.2718 3.07033C16.3796 3.41717 16.5835 3.72635 16.8599 3.96193C22.8503 9.15665 26.9506 16.1898 28.52 23.9619C-0.400034 40.1419 -9.76009 79.9619 11.8399 107.862C2.60991 118.452 0.83985 132.192 8.14985 139.482C8.37547 139.729 8.66807 139.906 8.99201 139.99C9.31596 140.074 9.65736 140.063 9.97492 139.957C10.2925 139.851 10.5725 139.656 10.7811 139.394C10.9896 139.132 11.1177 138.815 11.1498 138.482C12.3598 129.922 14.4499 129.352 20.5899 123.252C21.2844 122.558 21.8355 121.734 22.2114 120.827C22.5873 119.921 22.7807 118.949 22.7807 117.967C22.7807 116.985 22.5873 116.013 22.2114 115.106C21.8355 114.2 21.2844 113.376 20.5899 112.682C21.2828 113.376 22.1058 113.927 23.0118 114.303C23.9178 114.678 24.8891 114.872 25.8699 114.872C26.8508 114.872 27.822 114.678 28.728 114.303C29.634 113.927 30.4569 113.376 31.1498 112.682C37.3398 106.492 39.9399 102.682 46.4899 102.352C46.7179 102.343 46.9383 102.268 47.1242 102.136C47.3101 102.004 47.4533 101.82 47.5362 101.608C47.6191 101.395 47.6379 101.163 47.5906 100.94C47.5433 100.717 47.4319 100.513 47.27 100.352V100.352C41.55 94.6419 31.8799 94.4919 22.8599 99.1419C22.4299 101.232 22.9699 104.622 23.8599 108.492C20.8599 104.792 19.3599 96.9119 19.3599 96.9119C18.2368 91.42 18.3393 85.748 19.6602 80.3002C20.9811 74.8525 23.4878 69.7634 27.0015 65.3958C30.5153 61.0282 34.9496 57.4897 39.988 55.0328C45.0264 52.5759 50.5448 51.261 56.1498 51.1819ZM92.9099 53.0619C95.1999 50.7619 98.6599 54.2319 96.3699 56.5219C94.0799 58.8119 90.6099 55.3519 92.9099 53.0619Z" fill="#1FA0EB"/>
</svg>
