<svg id="Layer_1" data-name="Layer 1" xmlns="http://www.w3.org/2000/svg" viewBox="0 0 33.44 33.44"><defs><style>.cls-1{fill:none;stroke:#d00;stroke-miterlimit:10;}.cls-2{fill:#d00;}</style></defs><rect class="cls-1" x="0.5" y="0.5" width="32.44" height="32.44" rx="3.36"/><path class="cls-2" d="M22.84,17.21a4.63,4.63,0,0,1,2.23-3.92,4.84,4.84,0,0,0-3.78-2c-1.6-.16-3.13.95-3.95.95s-2.07-.93-3.41-.9a5.07,5.07,0,0,0-4.27,2.59C7.84,17,9.2,21.71,11,24.27c.87,1.26,1.9,2.67,3.26,2.61S16,26,17.61,26s2,.84,3.41.82,2.3-1.28,3.16-2.54a11.62,11.62,0,0,0,1.43-2.94,4.54,4.54,0,0,1-2.77-4.17"/><path class="cls-2" d="M20.24,9.54a4.49,4.49,0,0,0,1.07-3.29,4.65,4.65,0,0,0-3,1.56A4.34,4.34,0,0,0,17.18,11a3.84,3.84,0,0,0,3.06-1.46"/></svg>