<svg id="Layer_1" data-name="Layer 1" xmlns="http://www.w3.org/2000/svg" viewBox="0 0 33.44 33.44"><defs><style>.cls-1{fill:none;stroke:#d00;stroke-miterlimit:10;}.cls-2{fill:#d00;}</style></defs><rect class="cls-1" x="0.5" y="0.5" width="32.44" height="32.44" rx="3.36"/><path class="cls-2" d="M11.69,29.62l-.19-.06A1.68,1.68,0,0,1,10.16,28c0-.53,0-1.07,0-1.6a.88.88,0,0,0-1-.89A2.16,2.16,0,0,1,7,23.43v-14A2.16,2.16,0,0,1,9.18,7.36c.64,0,1-.34,1-.93V4.91A1.73,1.73,0,0,1,12,3.24H20.1a1.74,1.74,0,0,1,1.83,1.65c0,.52,0,1.05,0,1.57a.86.86,0,0,0,.95.9,2.16,2.16,0,0,1,2.21,2.07c0,.53,0,1.07,0,1.64h.83c.35,0,.52.16.52.48,0,.92,0,1.83,0,2.75,0,.33-.17.47-.52.48H25.1v8.5a2.16,2.16,0,0,1-2.3,2.22.86.86,0,0,0-.87.82c0,.5,0,1,0,1.52a1.68,1.68,0,0,1-1.45,1.74l-.08,0ZM21.27,7.35A2.7,2.7,0,0,1,21,5.83V5.06c0-.69-.33-1-1.08-1H12.17c-.77,0-1.08.3-1.11,1a5.09,5.09,0,0,1-.22,2.29ZM10.82,25.51a2.37,2.37,0,0,1,.25,1.37c0,.33,0,.65,0,1,0,.61.35.93,1,.93H20c.69,0,1-.32,1.05-.95a5.42,5.42,0,0,1,.21-2.33ZM7.9,16.42v6.85c0,.91.53,1.4,1.52,1.4H22.66c1,0,1.53-.49,1.53-1.38V9.57c0-.89-.54-1.38-1.53-1.38H9.42c-1,0-1.52.49-1.52,1.4ZM25.12,11.9v2h.41v-2Z"/><path class="cls-2" d="M9.4,24.08c-.6,0-.86-.23-.86-.79V9.57c0-.56.26-.79.86-.79H22.7c.58,0,.84.24.84.77V23.28c0,.57-.25.8-.87.8Zm-.32-.47H23V9.26H9.08Z"/><path class="cls-2" d="M13.48,16.3V16c0-.06,0-.13,0-.19a2.22,2.22,0,0,1,.38-1,1.63,1.63,0,0,1,1.76-.59l.52.18a.47.47,0,0,0,.33,0l.44-.14a1.69,1.69,0,0,1,.86-.12,1.64,1.64,0,0,1,.89.37,1.12,1.12,0,0,1,.25.28,1.44,1.44,0,0,0-.74,1.38,1.49,1.49,0,0,0,.93,1.28c-.09.2-.17.4-.27.59a2.89,2.89,0,0,1-.73,1,.81.81,0,0,1-.7.19A2.59,2.59,0,0,1,17,19a1.42,1.42,0,0,0-.84-.07c-.16,0-.31.11-.47.16a1,1,0,0,1-.48.07.85.85,0,0,1-.51-.29,4.07,4.07,0,0,1-.55-.69,4.14,4.14,0,0,1-.6-1.55C13.5,16.52,13.49,16.41,13.48,16.3Z"/><path class="cls-2" d="M17.7,12.49a1.24,1.24,0,0,1-.07.58,1.57,1.57,0,0,1-1,1,.93.93,0,0,1-.24,0s-.05,0-.06-.05a1.47,1.47,0,0,1,.31-.93,1.53,1.53,0,0,1,1-.59Z"/></svg>