<svg id="Layer_1" data-name="Layer 1" xmlns="http://www.w3.org/2000/svg" viewBox="0 0 33.44 33.44"><defs><style>.cls-1{fill:none;stroke:#d00;stroke-miterlimit:10;}.cls-2{fill:#d00;}</style></defs><rect class="cls-1" x="0.5" y="0.5" width="32.44" height="32.44" rx="3.36"/><path class="cls-2" d="M4.48,24.65v-6.3a.5.5,0,0,0,0-.13,3.58,3.58,0,0,1,2.73-3,12.23,12.23,0,0,1,1.92-.14h.73V6A1.09,1.09,0,0,1,10.29,5a1.19,1.19,0,0,1,.8-.22H28.17a1,1,0,0,1,1.1,1.05V23.51a4.13,4.13,0,0,1-.6,2.19,4.3,4.3,0,0,1-3.89,2.19H8.9a3.24,3.24,0,0,0-.44,0,3.68,3.68,0,0,1-3.81-2.59C4.58,25.1,4.54,24.87,4.48,24.65Zm7,1.28H24.76a2.5,2.5,0,0,0,.72-.09A2.43,2.43,0,0,0,27.3,23.4V7c0-.08,0-.16,0-.24H11.88V24a5.12,5.12,0,0,1-.09,1C11.73,25.29,11.61,25.59,11.51,25.93ZM9.9,17H9.77c-.59,0-1.18,0-1.77,0a1.65,1.65,0,0,0-1.53,1.54c0,.74,0,1.48,0,2.22,0,1.18,0,2.36,0,3.53a1.7,1.7,0,0,0,2.2,1.55,1.73,1.73,0,0,0,1.24-1.76V17.29C9.91,17.21,9.9,17.13,9.9,17Z"/><path class="cls-2" d="M19.55,17.68H15.34a1,1,0,0,1-.93-1.33.91.91,0,0,1,.79-.62l.29,0h8.18a1,1,0,0,1,1.08.65,1,1,0,0,1-.94,1.32H19.55Z"/><path class="cls-2" d="M18.4,22.13H15.33a1,1,0,0,1-.95-.69,1,1,0,0,1,.39-1.09,1.27,1.27,0,0,1,.61-.17q3,0,6,0a1,1,0,1,1,0,2Z"/><path class="cls-2" d="M18.38,12.93h-3A1,1,0,0,1,15.13,11a2.55,2.55,0,0,1,.39,0h5.76a1.71,1.71,0,0,1,.5.06,1,1,0,0,1,.66,1.07,1,1,0,0,1-.94.83H18.38Z"/></svg>