<svg id="Layer_1" data-name="Layer 1" xmlns="http://www.w3.org/2000/svg" viewBox="0 0 33.44 33.44"><defs><style>.cls-1{fill:none;stroke:#d00;stroke-miterlimit:10;}.cls-2{fill:#d00;}</style></defs><rect class="cls-1" x="0.5" y="0.5" width="32.44" height="32.44" rx="3.36"/><path class="cls-2" d="M16.15,27.81a5.2,5.2,0,0,1-.69-.27,2,2,0,0,1-1.1-1.84c0-.47,0-.46-.42-.63a7.54,7.54,0,0,1-.82-.36.24.24,0,0,0-.34.06,2.22,2.22,0,0,1-1.29.77,2,2,0,0,1-1.75-.46c-.44-.4-.85-.81-1.25-1.25A2,2,0,0,1,8.56,21c.3-.31.39-.54.15-.91a3.19,3.19,0,0,1-.3-.74c0-.15-.11-.19-.26-.2a3.9,3.9,0,0,1-.91-.09,1.94,1.94,0,0,1-1.45-1.74,9.28,9.28,0,0,1,0-2,2,2,0,0,1,2-1.76c.52,0,.52,0,.71-.5a7.11,7.11,0,0,1,.33-.75A.24.24,0,0,0,8.79,12,2.21,2.21,0,0,1,8,10.74a2,2,0,0,1,.5-1.86q.56-.59,1.14-1.14a2.06,2.06,0,0,1,2.88,0c.28.29.49.38.85.15a3,3,0,0,1,.78-.31.24.24,0,0,0,.19-.27A2.19,2.19,0,0,1,14.68,6,2,2,0,0,1,16.4,5a12.92,12.92,0,0,1,1.87,0A2,2,0,0,1,20,7c0,.46.12.68.56.78a3,3,0,0,1,.71.31A.24.24,0,0,0,21.58,8a2.2,2.2,0,0,1,1.29-.78,1.93,1.93,0,0,1,1.74.46,13.73,13.73,0,0,1,1.27,1.26,2.07,2.07,0,0,1-.11,2.83c-.33.36-.33.36-.13.81.12.28.22.57.34.84a.28.28,0,0,0,.18.14c.22,0,.44,0,.65,0a2.1,2.1,0,0,1,1.75,1.65.61.61,0,0,0,.05.12v2.06a.58.58,0,0,0-.05.14A2.14,2.14,0,0,1,27.46,19a2.25,2.25,0,0,1-1.25.22.22.22,0,0,0-.25.18c-.09.27-.2.53-.31.79s-.21.32-.19.46.21.25.33.38a2.09,2.09,0,0,1,0,2.9c-.36.39-.74.76-1.12,1.12a2,2,0,0,1-1.9.5,2,2,0,0,1-1.13-.68.34.34,0,0,0-.5-.09,5.94,5.94,0,0,1-.82.35c-.34.13-.35.12-.34.49a2.06,2.06,0,0,1-1,1.88,5.31,5.31,0,0,1-.81.34Zm1-21.52H16.5a.76.76,0,0,0-.8.78c0,.32,0,.63,0,.94a.67.67,0,0,1-.53.69,8.43,8.43,0,0,0-2,.82.66.66,0,0,1-.89-.13c-.21-.2-.41-.42-.63-.62a.75.75,0,0,0-1.13,0l-1,1a.75.75,0,0,0,0,1.13c.2.21.42.42.63.63a.66.66,0,0,1,.11.91,8.26,8.26,0,0,0-.8,1.95.68.68,0,0,1-.74.55H7.86a.75.75,0,0,0-.76.77q0,.71,0,1.41a.75.75,0,0,0,.79.78H8.8a.67.67,0,0,1,.7.54,8.47,8.47,0,0,0,.82,2,.65.65,0,0,1-.13.9l-.63.64a.75.75,0,0,0,0,1.11c.32.33.65.66,1,1a.75.75,0,0,0,1.11,0l.62-.61a.67.67,0,0,1,.94-.14,8.37,8.37,0,0,0,1.93.8.69.69,0,0,1,.56.75v.89a.76.76,0,0,0,.78.78h1.39a.76.76,0,0,0,.79-.79v-.91a.68.68,0,0,1,.55-.71,8.73,8.73,0,0,0,1.95-.81.66.66,0,0,1,.92.13l.64.63a.74.74,0,0,0,1.09,0c.34-.33.67-.66,1-1a.74.74,0,0,0,0-1.09l-.64-.65a.66.66,0,0,1-.12-.91,8.37,8.37,0,0,0,.8-1.93.68.68,0,0,1,.76-.57h.87a.77.77,0,0,0,.79-.79V15.7a.77.77,0,0,0-.8-.8h-.91a.67.67,0,0,1-.7-.54,8.29,8.29,0,0,0-.82-2,.67.67,0,0,1,.13-.91c.21-.21.43-.41.63-.63a.75.75,0,0,0,0-1.11l-1-1a.75.75,0,0,0-1.11,0l-.62.61a.67.67,0,0,1-.94.14,8,8,0,0,0-1.93-.8A.69.69,0,0,1,18.66,8V7.06a.76.76,0,0,0-.78-.77Z"/><path class="cls-2" d="M22.15,16.38a5,5,0,1,1-5-5A5,5,0,0,1,22.15,16.38Zm-1.34,0A3.63,3.63,0,1,0,17.17,20,3.62,3.62,0,0,0,20.81,16.39Z"/></svg>