<svg id="Layer_1" data-name="Layer 1" xmlns="http://www.w3.org/2000/svg" viewBox="0 0 33.44 33.44"><defs><style>.cls-1{fill:none;stroke:#d00;stroke-miterlimit:10;}.cls-2{fill:#d00;}</style></defs><rect class="cls-1" x="0.5" y="0.5" width="32.44" height="32.44" rx="3.36"/><path class="cls-2" d="M26,19a9.45,9.45,0,0,0,.21-3.3,9.61,9.61,0,0,0-3.09-6.07.41.41,0,0,0-.48-.14,1,1,0,0,1-.87-.2,8.76,8.76,0,0,0-3.64-1.49,8.94,8.94,0,0,0-6.63,1.45,1.19,1.19,0,0,1-1.1.21c-.06,0-.17,0-.23.1a9.62,9.62,0,0,0-3,9.43l.15-.07a1.34,1.34,0,0,1,1.94.6c.5,1,1,2,1.46,3s1.08,2.23,1.61,3.35a1.33,1.33,0,0,1-.75,1.88,1.27,1.27,0,0,1-.61.07.8.8,0,0,0-.51.09,2.76,2.76,0,0,1-3.82-1.34c-.43-.89-.86-1.78-1.28-2.68a2.69,2.69,0,0,1,.33-3,.29.29,0,0,0,0-.32A11.26,11.26,0,0,1,7.29,10a11,11,0,0,1,7.55-4.58A11.47,11.47,0,0,1,27.7,13.88a11.32,11.32,0,0,1-.29,6.69.4.4,0,0,0,.07.43,2.64,2.64,0,0,1,.34,2.81c-.44,1-.91,2-1.4,2.93A2.73,2.73,0,0,1,22.78,28a1.33,1.33,0,0,0-.69-.13,1.33,1.33,0,0,1-1.29-1.95c.86-1.81,1.72-3.6,2.59-5.4.14-.31.29-.61.44-.92a1.34,1.34,0,0,1,2-.63A.49.49,0,0,1,26,19ZM10,8.19l.39.41c.32.33.37.33.75.08a9.61,9.61,0,0,1,8.62-1.15,9,9,0,0,1,2.4,1.21c.16.11.32.18.48,0s.38-.38.57-.58A10.79,10.79,0,0,0,10,8.19ZM6.9,20.84a2,2,0,0,0-1,2.66c.46,1,.94,2,1.43,3a2,2,0,0,0,1.29,1A1.92,1.92,0,0,0,10,27.38Zm16.18,6.54.12.06a2,2,0,0,0,2.61-1c.48-.95.93-1.91,1.38-2.88a2.08,2.08,0,0,0,.18-.6,2,2,0,0,0-1.15-2.1Zm-15-8a.64.64,0,0,0-.65.62,1.19,1.19,0,0,0,.13.48c1,2,1.92,4,2.88,6,.06.12.11.25.18.37a.63.63,0,0,0,.67.3.58.58,0,0,0,.53-.49,1.2,1.2,0,0,0-.09-.56c-.43-.93-.88-1.85-1.33-2.77C9.79,22.2,9.23,21,8.68,19.87A.71.71,0,0,0,8,19.41Zm14,7.79a.7.7,0,0,0,.58-.47l1.94-4c.36-.76.73-1.52,1.1-2.29a.67.67,0,0,0-.08-.75.62.62,0,0,0-.67-.22.74.74,0,0,0-.49.47c-1,2.07-2,4.15-3,6.22a2.18,2.18,0,0,0-.09.23A.67.67,0,0,0,22.06,27.2ZM23.38,9l0,0,.16.15a10.34,10.34,0,0,1,2.91,10.51c-.15.53,0,.56.29.64A10.71,10.71,0,0,0,23.71,8.66ZM9.43,8.64A10.71,10.71,0,0,0,6.37,20.31c.36-.14.38-.2.29-.58a16.36,16.36,0,0,1-.37-1.85A10.18,10.18,0,0,1,9.05,9.67l.68-.75Z"/></svg>