<svg id="Layer_1" data-name="Layer 1" xmlns="http://www.w3.org/2000/svg" viewBox="0 0 33.44 33.44"><defs><style>.cls-1{fill:none;stroke:#d00;stroke-miterlimit:10;}.cls-2{fill:#d00;}</style></defs><rect class="cls-1" x="0.5" y="0.5" width="32.44" height="32.44" rx="3.36"/><path class="cls-2" d="M31.32,24.3a2.67,2.67,0,0,1-.75,1.47,2.53,2.53,0,0,1-1.81.68q-12,0-24,0A2.44,2.44,0,0,1,2.2,23.86c0-.95.1-1.05,1.06-1.05H4.63V9.62a2.51,2.51,0,0,1,1-2.12A2.48,2.48,0,0,1,7.17,7H26.34a2.44,2.44,0,0,1,2.55,2.6V22.81c.57,0,1.11,0,1.65,0a.73.73,0,0,1,.78.48ZM5.84,22.78H27.68V9.63a1.24,1.24,0,0,0-1.41-1.41h-19A1.24,1.24,0,0,0,5.84,9.63V22.78ZM3.37,24a5.47,5.47,0,0,0,.2.58,1.3,1.3,0,0,0,1.28.63H28.67a2.61,2.61,0,0,0,.4,0,1.16,1.16,0,0,0,1-1.19H20.36a.61.61,0,0,0-.54.23,1,1,0,0,1-.93.39c-1.41,0-2.82,0-4.23,0a1.11,1.11,0,0,1-1-.42.55.55,0,0,0-.49-.21H3.37Z"/></svg>