<svg id="Layer_1" data-name="Layer 1" xmlns="http://www.w3.org/2000/svg" viewBox="0 0 33.44 33.44"><defs><style>.cls-1{fill:none;stroke:#d00;stroke-miterlimit:10;}.cls-2{fill:#d00;}</style></defs><rect class="cls-1" x="0.5" y="0.5" width="32.44" height="32.44" rx="3.36"/><path class="cls-2" d="M21.79,3.89A6.93,6.93,0,0,1,23,4.41,2.51,2.51,0,0,1,24,6.62V26.93a2.65,2.65,0,0,1-1,2.24,2.6,2.6,0,0,1-1.64.53H11.23a2.6,2.6,0,0,1-2.68-2.62c0-.22,0-.45,0-.68q0-9.87,0-19.75A2.55,2.55,0,0,1,9.61,4.41a6.69,6.69,0,0,1,1.19-.52ZM9.84,16.79V26.94A1.31,1.31,0,0,0,11.3,28.4c3.33,0,6.65,0,10,0a1.31,1.31,0,0,0,1.47-1.46V6.63A1.31,1.31,0,0,0,21.3,5.18h-10a2,2,0,0,0-.48.05,1.28,1.28,0,0,0-1,1.35Z"/><path class="cls-2" d="M16.29,27.54a1.29,1.29,0,1,1,1.29-1.28A1.29,1.29,0,0,1,16.29,27.54Z"/><path class="cls-2" d="M17.35,7.33H16.14a.65.65,0,0,1-.71-.63A.66.66,0,0,1,16.14,6h2.47a.65.65,0,0,1,.69.65.64.64,0,0,1-.69.63Z"/><path class="cls-2" d="M13.92,7.32a.66.66,0,0,1-.64-.64.65.65,0,0,1,.65-.63.64.64,0,1,1,0,1.27Z"/></svg>