<svg id="Layer_1" data-name="Layer 1" xmlns="http://www.w3.org/2000/svg" viewBox="0 0 33.44 33.44"><defs><style>.cls-1{fill:none;stroke:#d00;stroke-miterlimit:10;}.cls-2{fill:#d00;}</style></defs><rect class="cls-1" x="0.5" y="0.5" width="32.44" height="32.44" rx="3.36"/><path class="cls-2" d="M6.94,15.36a.81.81,0,0,0-.22.85.7.7,0,0,0,.34.43l.52.31a3.37,3.37,0,0,1,.31.21.33.33,0,0,1,.12.37.23.23,0,0,1-.21.18H7.66a.25.25,0,0,1-.22-.25v-.28H6.68a.8.8,0,0,0,.6,1,1.71,1.71,0,0,0,1,0,.7.7,0,0,0,.51-.7,1.45,1.45,0,0,0,0-.36.63.63,0,0,0-.29-.42c-.21-.14-.43-.26-.65-.39a1.51,1.51,0,0,1-.26-.18.25.25,0,0,1-.09-.28.27.27,0,0,1,.53,0v.2h.71c0-.4-.05-.72-.46-.84a1.69,1.69,0,0,0-.45-.07c-.13,0-.26,0-.39,0l.07,0a34.18,34.18,0,0,1,3.69-1.27c1.26-.36,2.53-.67,3.82-.91.7-.14,1.41-.26,2.12-.37s1.24-.18,1.87-.25l1.87-.17a30.43,30.43,0,0,1,3.7-.07c.59,0,1.18.07,1.76.13a11.27,11.27,0,0,1,2.44.51,4.53,4.53,0,0,1,1.25.61,1.6,1.6,0,0,1,.59.79,1.32,1.32,0,0,1-.12,1,3.1,3.1,0,0,1-.72.89A8.32,8.32,0,0,1,28,17.26l-1.33.67-.06,0a.73.73,0,0,0,.21-.37,2.85,2.85,0,0,0,0-.29v-.78h-1v.41h.29c0,.19,0,.37,0,.54s-.1.18-.22.2a.3.3,0,0,1-.37-.31c0-.45,0-.9,0-1.36a.29.29,0,0,1,.4-.3.27.27,0,0,1,.2.27v.2h.72a.87.87,0,0,0-.25-.77.89.89,0,0,0-.49-.2,1.71,1.71,0,0,0-.78.05.72.72,0,0,0-.51.68c0,.46,0,.92,0,1.39a1.24,1.24,0,0,0,0,.27.73.73,0,0,0,.58.55,1.94,1.94,0,0,0,.76,0l-.06,0a29.77,29.77,0,0,1-3.28,1.17c-1.13.35-2.27.64-3.42.88-.86.18-1.72.34-2.59.49-.7.12-1.41.21-2.11.3-.89.11-1.78.19-2.68.24s-2,.07-3,0a19.42,19.42,0,0,1-2.41-.2,10.44,10.44,0,0,1-2.06-.48A4,4,0,0,1,3.39,20a1.52,1.52,0,0,1-.59-.76,1.28,1.28,0,0,1,.12-1,2.92,2.92,0,0,1,.69-.87,8.83,8.83,0,0,1,1.78-1.26c.49-.27,1-.51,1.49-.74Zm8.4,2.75-.06-2.86H14.11l-.36,2.19h0l-.35-2.19H12.2l-.06,2.86h.73V15.54h0a.19.19,0,0,1,0,.07c.15.82.31,1.64.46,2.46,0,0,0,.05.06.05h.63s0,0,.06-.05,0-.24.06-.36c.12-.65.24-1.31.37-2a1.55,1.55,0,0,1,0-.21h0v2.57Zm7.34-2.86H21.61v2.84h.7l0-2.33h0a.14.14,0,0,1,0,.06c.23.74.45,1.47.67,2.21a.09.09,0,0,0,.09.06H24V15.25h-.7l0,2.25h0Zm-3.9,0v0c0,.73,0,1.47,0,2.2a.67.67,0,0,0,.49.65,1.78,1.78,0,0,0,1,0,.67.67,0,0,0,.48-.4.83.83,0,0,0,.07-.38V15.25h-.72v2.08s0,.09,0,.13a.25.25,0,0,1-.26.23.27.27,0,0,1-.3-.21V15.24Zm-8.39.27h0a.09.09,0,0,1,0,.05c.06.36.11.72.16,1.07l.21,1.43c0,.05,0,.06.06.06h.72L11,15.25H9.79a0,0,0,0,0,0,0c-.06.3-.12.59-.17.89-.1.51-.19,1-.29,1.54,0,.13,0,.27-.07.4H10Zm7.65.57v-.24a.61.61,0,0,0-.43-.59,1.67,1.67,0,0,0-.86-.05,1,1,0,0,0-.45.19.81.81,0,0,0-.05,1.09,2.53,2.53,0,0,0,.26.22L17,17a1.57,1.57,0,0,1,.32.24.29.29,0,0,1-.28.48.24.24,0,0,1-.23-.26v-.26h-.76v.28a.68.68,0,0,0,.43.64,1.5,1.5,0,0,0,1.21,0,.62.62,0,0,0,.39-.49,2,2,0,0,0,0-.35.61.61,0,0,0-.26-.54,5,5,0,0,0-.49-.31l-.44-.27a.28.28,0,0,1-.11-.31.25.25,0,0,1,.28-.18.24.24,0,0,1,.25.25v.18Z"/></svg>