<svg id="Layer_1" data-name="Layer 1" xmlns="http://www.w3.org/2000/svg" viewBox="0 0 33.44 33.44"><defs><style>.cls-1{fill:none;stroke:#d00;stroke-miterlimit:10;}.cls-2{fill:#d00;}</style></defs><rect class="cls-1" x="0.5" y="0.5" width="32.44" height="32.44" rx="3.36"/><path class="cls-2" d="M9.33,29.86A2.42,2.42,0,0,1,8,29.17a2.33,2.33,0,0,1-.6-1.67V6.24A2.12,2.12,0,0,1,8.64,4.15a2.41,2.41,0,0,1,1-.23q7.27,0,14.55,0a2.16,2.16,0,0,1,2.24,2.23.85.85,0,0,1,0,.16q0,10.59,0,21.18a2.18,2.18,0,0,1-.91,1.95,5.68,5.68,0,0,1-1,.43ZM25.59,16.91V6.24a1.33,1.33,0,0,0-1.48-1.47H9.74A1.33,1.33,0,0,0,8.28,6.23V27.54a1.81,1.81,0,0,0,.07.52A1.29,1.29,0,0,0,9.72,29H24a1.36,1.36,0,0,0,1.56-1.55Z"/><path class="cls-2" d="M25.14,7.38V25.52H8.73V7.38ZM9.6,8.24V24.65H24.27V8.24Z"/><path class="cls-2" d="M16.93,28.56a1.3,1.3,0,1,1,1.3-1.28A1.3,1.3,0,0,1,16.93,28.56Zm0-.87a.42.42,0,0,0,.45-.42.43.43,0,1,0-.85,0A.42.42,0,0,0,16.91,27.69Z"/><path class="cls-2" d="M17.8,6.07a.87.87,0,0,1-1.73,0,.87.87,0,0,1,1.73,0Z"/></svg>