<svg id="Layer_1" data-name="Layer 1" xmlns="http://www.w3.org/2000/svg" viewBox="0 0 33.44 33.44"><defs><style>.cls-1{fill:none;stroke:#d00;stroke-miterlimit:10;}.cls-2{fill:#d00;}</style></defs><rect class="cls-1" x="0.5" y="0.5" width="32.44" height="32.44" rx="3.36"/><path class="cls-2" d="M12.21,5.61a2.48,2.48,0,0,1,.48.27,1,1,0,0,1,.12,1.34c-.1.13-.23.25-.35.38L9.64,10.42l-.19.2H26.88a1.18,1.18,0,0,1,.77.2,1,1,0,0,1-.36,1.78,1.84,1.84,0,0,1-.41,0H9.45c.08.08.12.14.18.19l3,3.05a1,1,0,0,1-1.24,1.57l-.26-.23L6.54,12.58A1.86,1.86,0,0,1,6,11.82v-.39a2.12,2.12,0,0,1,.56-.77l4.49-4.49a2.12,2.12,0,0,1,.77-.56Z"/><path class="cls-2" d="M6,21.48a1.17,1.17,0,0,1,1.28-.83H24.64l-.19-.2-3-3a1,1,0,0,1-.23-1.28,1,1,0,0,1,1.45-.31l.26.23,4.75,4.75a1,1,0,0,1,0,1.68l-4.8,4.8a1,1,0,0,1-1.26.26,1,1,0,0,1-.32-1.49,2.18,2.18,0,0,1,.21-.22l2.95-3c.06-.06.13-.1.19-.15l0-.07H7.2a1.09,1.09,0,0,1-.93-.34A3.59,3.59,0,0,1,6,21.86Z"/></svg>