<svg id="Layer_1" data-name="Layer 1" xmlns="http://www.w3.org/2000/svg" viewBox="0 0 33.44 33.44"><defs><style>.cls-1{fill:none;stroke:#d00;stroke-miterlimit:10;}.cls-2{fill:#d00;}</style></defs><rect class="cls-1" x="0.5" y="0.5" width="32.44" height="32.44" rx="3.36"/><path class="cls-2" d="M8.17,20.9a.73.73,0,0,1-.48-.23C6.43,19.43,5.19,18.18,4,16.93c-.12-.11-.36-.4-.19-.62a1.7,1.7,0,0,1,.79-.47.5.5,0,0,1,.19,0l.24,0h.56l.06-.26c.06-.27.11-.54.16-.8.11-.53.21-1,.35-1.51a11.06,11.06,0,0,1,10.72-7.9A10.84,10.84,0,0,1,24.26,8.3c.37.34.53.57.53.75s-.14.4-.48.74l-2.15,2.14c-.3.3-.51.43-.68.43s-.38-.12-.69-.4a6.07,6.07,0,0,0-9.92,3,1.25,1.25,0,0,0,0,.29l-.08.55h.93a.42.42,0,0,1,.17,0c.5.2.63.35.67.43a.75.75,0,0,1-.1.58c-1.36,1.44-2.77,2.82-3.85,3.87A.58.58,0,0,1,8.17,20.9ZM16.8,6.56a10,10,0,0,0-4.23,1,9.46,9.46,0,0,0-5.68,8.49c0,.55-.09.82-.33,1l-.38.21,2,2.12,2.05-2.07-.38-.21c-.32-.18-.41-.44-.39-1a7.32,7.32,0,0,1,7-6.87h.23a7.44,7.44,0,0,1,4.52,1.5l.23.17,1.68-1.68L23,9a.63.63,0,0,0-.13-.2c-.07-.07-.15-.12-.22-.18A10.11,10.11,0,0,0,16.8,6.56Z"/><path class="cls-2" d="M16.71,27.54A11,11,0,0,1,9.62,25c-.23-.2-.46-.4-.67-.62a.6.6,0,0,1,0-1c.9-.93,1.76-1.78,2.61-2.6a.61.61,0,0,1,.43-.22,1.1,1.1,0,0,1,.68.36,6,6,0,0,0,4,1.6,6.24,6.24,0,0,0,2.17-.4,6,6,0,0,0,3.9-4.64l.09-.41h-.42l-.34,0h-.23l-.18,0c-.51-.21-.63-.38-.66-.44a.76.76,0,0,1,.11-.59c1.28-1.35,2.64-2.69,3.81-3.83a.55.55,0,0,1,.87,0C27,13.42,28.29,14.69,29.54,16a.84.84,0,0,1,.14.63c0,.07-.16.23-.71.44l-.21,0h-.25l-.29,0H28l-.06.27c-.05.26-.11.52-.16.77-.1.53-.2,1-.34,1.51A11,11,0,0,1,16.71,27.54Zm-6.42-3.66.35.3.21.17a10.07,10.07,0,0,0,5.84,2h0a9.85,9.85,0,0,0,4.24-1,9.59,9.59,0,0,0,5.7-8.49,4,4,0,0,1,.21-.85l.17-.53,0-.19-1.7-1.68-1.83,1.73.09.21a2.92,2.92,0,0,0,.19.44,1.64,1.64,0,0,1,.21.61A6.77,6.77,0,0,1,22,21.5a7.27,7.27,0,0,1-5.15,2.26A6.36,6.36,0,0,1,16,23.7a7.91,7.91,0,0,1-3.64-1.45l-.23-.17Z"/></svg>